<?xml version="1.0" standalone="no"?>
<!DOCTYPE svg PUBLIC "-//W3C//DTD SVG 20010904//EN"
 "http://www.w3.org/TR/2001/REC-SVG-20010904/DTD/svg10.dtd">
<svg version="1.0" xmlns="http://www.w3.org/2000/svg"
 width="181.000000pt" height="181.000000pt" viewBox="0 0 181.000000 181.000000"
 preserveAspectRatio="xMidYMid meet">
<metadata>
Created by potrace 1.16, written by Peter Selinger 2001-2019
</metadata>
<g transform="translate(0.000000,181.000000) scale(0.100000,-0.100000)"
fill="#000000" stroke="none">
<path d="M867 1793 l-857 -3 0 -848 c1 -466 -1 -854 -5 -863 -15 -40 12 -41
894 -40 664 1 847 4 853 14 9 14 11 1670 2 1716 -4 17 -12 30 -18 29 -6 -2
-397 -4 -869 -5z m738 -1070 c-3 -10 -162 -12 -730 -10 -722 2 -726 2 -721 22
3 11 6 216 6 455 0 256 4 441 10 450 8 13 103 16 722 20 l713 5 3 -465 c1
-256 0 -471 -3 -477z m-1190 -174 c68 -18 88 -38 88 -90 0 -48 -20 -69 -64
-69 -22 0 -32 7 -45 35 -27 58 -104 85 -136 48 -25 -28 -30 -59 -18 -105 23
-84 95 -129 168 -104 75 26 92 28 92 9 0 -32 -38 -76 -77 -90 -79 -29 -108
-35 -149 -29 -114 15 -183 88 -185 194 -2 78 19 123 78 166 75 56 136 64 248
35z m308 15 c42 -7 45 -15 18 -41 -19 -18 -19 -19 4 -73 28 -66 56 -77 79 -32
8 16 12 32 9 36 -4 3 -1 6 5 6 11 0 9 50 -2 68 -3 5 9 17 28 27 26 14 44 16
87 11 66 -9 88 -9 161 0 107 12 154 -11 112 -57 -12 -14 -16 -43 -16 -144 -1
-118 1 -127 21 -141 49 -35 9 -64 -98 -71 -56 -4 -81 -1 -95 9 -18 14 -18 16
0 42 20 32 31 164 20 241 -8 53 -38 80 -80 69 -21 -5 -34 -23 -62 -83 -53
-113 -78 -165 -84 -171 -3 -3 -14 -24 -24 -46 -19 -43 -51 -68 -80 -62 -11 2
-44 63 -95 173 -57 126 -82 171 -96 173 -35 7 -37 19 -8 39 15 11 35 23 43 26
21 8 107 8 153 1z m915 -3 c16 -1 52 -60 52 -85 0 -27 -29 -56 -56 -56 -15 0
-30 12 -44 35 -35 57 -45 41 -48 -85 -2 -104 -1 -115 19 -136 12 -13 26 -21
30 -18 5 3 9 -2 9 -10 0 -34 -49 -51 -147 -51 -96 1 -127 12 -108 39 46 62 47
64 48 170 2 130 -7 145 -56 92 -46 -49 -73 -48 -79 2 -6 43 -1 62 16 62 6 0
17 9 23 19 7 11 25 21 40 23 27 3 274 3 301 -1z"/>
<path d="M993 1613 c-7 -2 -13 -21 -13 -42 0 -46 -16 -81 -48 -106 -20 -14
-40 -18 -95 -17 -77 2 -87 6 -69 24 15 15 15 32 1 81 -8 31 -14 38 -32 35 -19
-3 -23 -11 -27 -55 -5 -51 -30 -93 -56 -93 -7 0 -26 -8 -43 -17 -30 -18 -54
-12 -34 8 16 16 -4 67 -28 74 -36 12 -47 -9 -35 -64 11 -56 3 -71 -46 -97 -26
-14 -28 -13 -28 5 0 26 -32 45 -48 29 -16 -16 -15 -55 1 -62 8 -3 4 -12 -14
-28 -14 -13 -33 -36 -43 -51 -9 -15 -28 -32 -41 -37 -63 -24 -83 -84 -44 -134
22 -28 73 -59 82 -50 13 14 56 -13 115 -72 117 -117 159 -134 347 -141 113 -5
140 -3 205 16 86 25 96 29 170 64 56 27 77 40 192 115 62 40 138 121 138 147
0 20 -103 115 -125 115 -11 0 -29 8 -40 17 -20 15 -20 15 1 11 11 -3 47 4 80
16 46 17 60 26 62 44 5 34 -14 53 -43 42 -27 -10 -125 -29 -181 -34 -21 -2
-46 -7 -54 -10 -9 -4 -24 0 -35 8 -20 15 -19 15 4 16 41 0 135 82 147 128 9
31 -3 71 -20 68 -7 -1 -37 -27 -65 -58 -28 -31 -68 -63 -90 -71 -54 -22 -137
-32 -145 -18 -4 6 0 14 8 17 8 3 22 28 32 56 13 42 14 57 5 89 -11 37 -21 44
-48 32z m-390 -279 c-56 -47 -81 -90 -89 -155 -6 -50 -3 -59 35 -125 47 -81
58 -93 125 -128 56 -30 140 -35 253 -15 76 13 107 37 148 111 26 46 30 63 30
133 0 57 -5 89 -18 112 -11 20 -13 34 -7 38 35 22 372 -147 354 -177 -3 -4
-12 -8 -20 -8 -13 0 -186 -112 -224 -145 -8 -7 -35 -21 -60 -30 -25 -9 -54
-21 -64 -27 -31 -17 -164 -40 -259 -45 -134 -8 -206 18 -307 111 -119 109
-130 117 -151 111 -11 -4 -28 -3 -40 0 -18 6 -15 9 21 27 25 13 48 33 57 52
19 40 238 214 252 200 3 -3 -13 -21 -36 -40z m151 -64 c31 -11 33 -36 9 -79
-20 -35 -65 -49 -110 -34 -24 8 -28 16 -31 51 -3 36 0 43 25 56 33 18 71 20
107 6z"/>
</g>
</svg>
