<?xml version="1.0" standalone="no"?>
<!DOCTYPE svg PUBLIC "-//W3C//DTD SVG 20010904//EN"
 "http://www.w3.org/TR/2001/REC-SVG-20010904/DTD/svg10.dtd">
<svg version="1.0" xmlns="http://www.w3.org/2000/svg"
 width="900.000000pt" height="500.000000pt" viewBox="0 0 900.000000 500.000000"
 preserveAspectRatio="xMidYMid meet">
<metadata>
Created by potrace 1.16, written by Peter Selinger 2001-2019
</metadata>
<g transform="translate(0.000000,500.000000) scale(0.100000,-0.100000)"
fill="#000000" stroke="none">
<path d="M180 4330 l0 -410 415 0 415 0 0 -1830 0 -1830 410 0 410 0 0 1830 0
1830 415 0 415 0 0 -1830 0 -1830 1295 0 1295 0 2 1828 3 1827 478 3 477 2 0
-1830 0 -1830 410 0 410 0 0 1830 0 1830 475 0 475 0 0 -1830 0 -1830 410 0
410 0 0 2240 0 2240 -2180 0 -2180 0 0 -1830 0 -1830 -480 0 -480 0 0 1830 0
1830 -1650 0 -1650 0 0 -410z"/>
</g>
</svg>
